<svg width="40" height="47" viewBox="0 0 40 47" fill="none" xmlns="http://www.w3.org/2000/svg">
<g clip-path="url(#clip0)">
<path d="M36.675 31.9658L39.9578 17.4931C40.1949 16.4482 39.4022 15.4531 38.3326 15.4531H11.0561L10.4196 12.3352C10.261 11.5581 9.57847 11 8.78674 11H1.66667C0.746181 11 0 11.7476 0 12.6699V13.7832C0 14.7055 0.746181 15.4531 1.66667 15.4531H6.51965L11.398 39.3494C10.2309 40.0219 9.44444 41.2828 9.44444 42.7285C9.44444 44.8805 11.1856 46.625 13.3333 46.625C15.4811 46.625 17.2222 44.8805 17.2222 42.7285C17.2222 41.6379 16.7745 40.6526 16.0539 39.9453H30.6127C29.8922 40.6526 29.4444 41.6379 29.4444 42.7285C29.4444 44.8805 31.1856 46.625 33.3333 46.625C35.4811 46.625 37.2222 44.8805 37.2222 42.7285C37.2222 41.1858 36.3272 39.8526 35.0292 39.2213L35.4124 37.5322C35.6494 36.4873 34.8567 35.4922 33.7872 35.4922H15.147L14.6925 33.2656H35.0498C35.828 33.2656 36.5026 32.7261 36.675 31.9658Z" fill="#66A4EC"/>
</g>
<circle cx="25" cy="7" r="7" fill="#2DD91E"/>
<defs>
<clipPath id="clip0">
<rect width="40" height="35.625" fill="white" transform="translate(0 11)"/>
</clipPath>
</defs>
</svg>
