<svg width="100" height="100" viewBox="0 0 100 100" fill="none" xmlns="http://www.w3.org/2000/svg">
<circle cx="50" cy="50" r="48.5" fill="white" stroke="#66A4EC" stroke-width="3"/>
<path d="M64.5919 50.775L67.9568 35.7438C68.1997 34.6585 67.3872 33.625 66.291 33.625H38.3325L37.6801 30.3868C37.5175 29.5796 36.8179 29 36.0064 29H28.7083C27.7648 29 27 29.7765 27 30.7344V31.8906C27 32.8485 27.7648 33.625 28.7083 33.625H33.6826L38.6829 58.4435C37.4867 59.142 36.6806 60.4516 36.6806 61.9531C36.6806 64.1882 38.4652 66 40.6667 66C42.8681 66 44.6528 64.1882 44.6528 61.9531C44.6528 60.8204 44.1939 59.7971 43.4552 59.0625H58.378C57.6395 59.7971 57.1806 60.8204 57.1806 61.9531C57.1806 64.1882 58.9652 66 61.1667 66C63.3681 66 65.1528 64.1882 65.1528 61.9531C65.1528 60.3509 64.2354 58.9662 62.905 58.3106L63.2977 56.5563C63.5406 55.471 62.7281 54.4375 61.6318 54.4375H42.5257L42.0598 52.125H62.926C63.7237 52.125 64.4151 51.5647 64.5919 50.775Z" fill="#66A4EC"/>
</svg>
