<svg width="38" height="31" viewBox="0 0 38 31" fill="none" xmlns="http://www.w3.org/2000/svg">
<path d="M37.05 12.5938H33.25V8.71875C33.25 8.18594 32.8225 7.75 32.3 7.75H30.4C29.8775 7.75 29.45 8.18594 29.45 8.71875V12.5938H25.65C25.1275 12.5938 24.7 13.0297 24.7 13.5625V15.5C24.7 16.0328 25.1275 16.4688 25.65 16.4688H29.45V20.3438C29.45 20.8766 29.8775 21.3125 30.4 21.3125H32.3C32.8225 21.3125 33.25 20.8766 33.25 20.3438V16.4688H37.05C37.5725 16.4688 38 16.0328 38 15.5V13.5625C38 13.0297 37.5725 12.5938 37.05 12.5938ZM13.3 15.5C17.4978 15.5 20.9 12.0307 20.9 7.75C20.9 3.46934 17.4978 0 13.3 0C9.10219 0 5.7 3.46934 5.7 7.75C5.7 12.0307 9.10219 15.5 13.3 15.5ZM18.62 17.4375H17.6284C16.3103 18.0551 14.8438 18.4062 13.3 18.4062C11.7562 18.4062 10.2956 18.0551 8.97156 17.4375H7.98C3.57437 17.4375 0 21.0824 0 25.575V28.0938C0 29.6982 1.27656 31 2.85 31H23.75C25.3234 31 26.6 29.6982 26.6 28.0938V25.575C26.6 21.0824 23.0256 17.4375 18.62 17.4375Z" fill="#66A4EC"/>
</svg>
