<svg width="100" height="100" viewBox="0 0 100 100" fill="none" xmlns="http://www.w3.org/2000/svg">
<circle cx="50" cy="50" r="48.5" fill="white" stroke="#66A4EC" stroke-width="3"/>
<path d="M68.05 47.5938H64.25V43.7188C64.25 43.1859 63.8225 42.75 63.3 42.75H61.4C60.8775 42.75 60.45 43.1859 60.45 43.7188V47.5938H56.65C56.1275 47.5938 55.7 48.0297 55.7 48.5625V50.5C55.7 51.0328 56.1275 51.4688 56.65 51.4688H60.45V55.3438C60.45 55.8766 60.8775 56.3125 61.4 56.3125H63.3C63.8225 56.3125 64.25 55.8766 64.25 55.3438V51.4688H68.05C68.5725 51.4688 69 51.0328 69 50.5V48.5625C69 48.0297 68.5725 47.5938 68.05 47.5938ZM44.3 50.5C48.4978 50.5 51.9 47.0307 51.9 42.75C51.9 38.4693 48.4978 35 44.3 35C40.1022 35 36.7 38.4693 36.7 42.75C36.7 47.0307 40.1022 50.5 44.3 50.5ZM49.62 52.4375H48.6284C47.3103 53.0551 45.8438 53.4062 44.3 53.4062C42.7562 53.4062 41.2956 53.0551 39.9716 52.4375H38.98C34.5744 52.4375 31 56.0824 31 60.575V63.0938C31 64.6982 32.2766 66 33.85 66H54.75C56.3234 66 57.6 64.6982 57.6 63.0938V60.575C57.6 56.0824 54.0256 52.4375 49.62 52.4375Z" fill="#66A4EC"/>
</svg>
